<svg width="50" height="50" viewBox="0 0 50 50" fill="none" xmlns="http://www.w3.org/2000/svg">
<path d="M25 50C38.8071 50 50 38.8071 50 25C50 11.1929 38.8071 0 25 0C11.1929 0 0 11.1929 0 25C0 38.8071 11.1929 50 25 50Z" fill="#1977F3"/>
<path d="M34.7314 32.2281L35.8388 24.9999H28.9059V20.31C28.9059 18.3342 29.8727 16.4041 32.9806 16.4041H36.1341V10.2516C36.1341 10.2516 33.2724 9.76294 30.5372 9.76294C24.8277 9.76294 21.0941 13.2224 21.0941 19.4908V24.9999H14.7448V32.2281H21.0941V49.6975C22.3667 49.8979 23.6711 49.9999 25 49.9999C26.3289 49.9999 27.6332 49.8944 28.9059 49.6975V32.2281H34.7314Z" fill="white"/>
</svg>
