<svg width="50" height="40" viewBox="0 0 50 40" fill="none" xmlns="http://www.w3.org/2000/svg">
<path d="M50 4.73512C48.1603 5.53826 46.1833 6.08107 44.1082 6.3252C46.2263 5.07539 47.8527 3.09644 48.6186 0.738507C46.6367 1.8956 44.4413 2.736 42.1047 3.18897C40.2334 1.2264 37.5674 0 34.617 0C28.9517 0 24.3586 4.52124 24.3586 10.0978C24.3586 10.8893 24.4495 11.66 24.6243 12.3991C16.0988 11.978 8.54018 7.95776 3.48074 1.84843C2.59775 3.33984 2.09188 5.07449 2.09188 6.92508C2.09188 10.4284 3.90303 13.5193 6.65551 15.3301C4.97385 15.2777 3.39222 14.8234 2.00903 14.0671C2.0083 14.1092 2.0083 14.1515 2.0083 14.194C2.0083 19.0867 5.54428 23.1681 10.237 24.0956C9.37617 24.3264 8.46995 24.4498 7.53429 24.4498C6.87333 24.4498 6.23066 24.3866 5.60445 24.2686C6.90973 28.2806 10.6981 31.2 15.1869 31.2816C11.6762 33.9899 7.25301 35.6042 2.44705 35.6042C1.61912 35.6042 0.802517 35.5565 0 35.4633C4.53967 38.3284 9.93178 40 15.7248 40C34.5931 40 44.9109 24.6129 44.9109 11.2688C44.9109 10.831 44.9011 10.3954 44.8813 9.96246C46.8854 8.53874 48.6247 6.76016 50 4.73512Z" fill="#55ACEE"/>
</svg>
