<svg width="50" height="50" viewBox="0 0 50 50" fill="none" xmlns="http://www.w3.org/2000/svg">
<g clip-path="url(#clip0)">
<path d="M42.7149 7.26603C38.0146 2.58319 31.7646 0.00285711 25.1057 0C11.3839 0 0.217178 11.1141 0.211684 24.7748C0.210085 29.1415 1.35609 33.4041 3.53434 37.1614L0.00268555 50L13.1993 46.5549C16.8352 48.5291 20.929 49.5694 25.095 49.571H25.1055H25.1057C38.8252 49.571 49.9936 38.455 49.9995 24.7949C50.0017 18.1743 47.4146 11.9492 42.7149 7.26603ZM25.1057 45.3865H25.0976C21.3842 45.3845 17.7428 44.392 14.5666 42.5155L13.8107 42.0694L5.97956 44.1136L8.07036 36.5147L7.57788 35.7356C5.50655 32.4566 4.41305 28.6673 4.41461 24.7764C4.41916 13.422 13.7005 4.18472 25.1135 4.18472C30.6403 4.18701 35.8348 6.33179 39.7415 10.224C43.648 14.1162 45.7978 19.2904 45.7962 24.7931C45.7913 36.1479 36.5096 45.3865 25.1057 45.3865Z" fill="#E0E0E0"/>
<path d="M1.14444 48.5756L4.51478 36.3235C2.43549 32.7377 1.34204 28.6696 1.34335 24.5031C1.34881 11.4667 12.0056 0.860596 25.0994 0.860596C31.4545 0.863453 37.4191 3.32579 41.9037 7.79483C46.3892 12.2638 48.858 18.2041 48.8554 24.5216C48.8499 37.5584 38.1925 48.1654 25.1003 48.1654C25.0994 48.1654 25.101 48.1654 25.1003 48.1654H25.0898C21.1141 48.1642 17.2076 47.1706 13.738 45.2879L1.14444 48.5756Z" fill="url(#paint0_linear)"/>
<path fill-rule="evenodd" clip-rule="evenodd" d="M18.953 14.2569C18.4925 13.2374 18.0076 13.217 17.5694 13.1992C17.211 13.1839 16.8007 13.1848 16.3911 13.1848C15.9811 13.1848 15.315 13.3382 14.7516 13.9508C14.1879 14.5633 12.5993 16.0442 12.5993 19.0559C12.5993 22.068 14.8028 24.9784 15.11 25.3872C15.4175 25.7953 19.3636 32.1734 25.6133 34.6272C30.8073 36.6664 31.8642 36.2607 32.9916 36.1587C34.119 36.0566 36.6293 34.6782 37.1418 33.2486C37.6542 31.8194 37.6542 30.5944 37.5005 30.3383C37.3468 30.0832 36.9368 29.9301 36.3219 29.624C35.7069 29.3179 32.6841 27.8367 32.1204 27.6326C31.5567 27.4286 31.1468 27.3265 30.7368 27.9394C30.3269 28.5516 29.1492 29.9301 28.7905 30.3383C28.4317 30.7474 28.073 30.7984 27.4581 30.4923C26.8432 30.1852 24.8628 29.5395 22.5136 27.454C20.6858 25.8316 19.4517 23.8278 19.093 23.2149C18.7343 22.6027 19.0545 22.2711 19.363 21.9659C19.6391 21.6917 19.9779 21.2513 20.2854 20.8938C20.5922 20.5364 20.6947 20.2813 20.8997 19.8731C21.1047 19.4643 21.0022 19.1069 20.8484 18.8008C20.6947 18.4946 19.4997 15.4673 18.953 14.2569Z" fill="white"/>
<path d="M42.5104 7.18704C37.8641 2.55795 31.6859 0.00729245 25.1035 0.00439453C11.5392 0.00439453 0.500697 10.9909 0.495245 24.4948C0.493646 28.8114 1.62649 33.025 3.77973 36.7393L0.288666 49.4304L13.3337 46.0248C16.9279 47.9763 20.9747 49.0047 25.0929 49.0063H25.1033H25.1035C38.6655 49.0063 49.7056 38.0179 49.7114 24.5146C49.7136 17.97 47.1562 11.8164 42.5104 7.18704ZM25.1035 44.8699H25.0955C21.4247 44.868 17.8251 43.8868 14.6853 42.0319L13.9381 41.5909L6.1969 43.6116L8.26367 36.0999L7.77684 35.3298C5.7293 32.0885 4.64835 28.3427 4.64995 24.4964C4.65442 13.2724 13.8292 4.14116 25.1112 4.14116C30.5746 4.1434 35.7093 6.26358 39.5713 10.1111C43.4329 13.9587 45.558 19.0734 45.5564 24.5131C45.5515 35.7374 36.3764 44.8699 25.1035 44.8699Z" fill="white"/>
</g>
<defs>
<linearGradient id="paint0_linear" x1="24.9999" y1="48.5756" x2="24.9999" y2="0.860675" gradientUnits="userSpaceOnUse">
<stop stop-color="#20B038"/>
<stop offset="1" stop-color="#60D66A"/>
</linearGradient>
<clipPath id="clip0">
<rect width="50" height="50" fill="white"/>
</clipPath>
</defs>
</svg>
